<svg width="40" height="40" viewBox="0 0 40 40" fill="none" xmlns="http://www.w3.org/2000/svg">
<path d="M23.3334 11.6666V14.9999H21.6667V24.9999H23.3334V28.3333H16.6667V24.9999H18.3334V14.9999H16.6667V11.6666H23.3334ZM20 3.33325C22.1887 3.33325 24.356 3.76435 26.3781 4.60193C28.4002 5.4395 30.2375 6.66716 31.7852 8.21481C33.3328 9.76245 34.5605 11.5998 35.398 13.6219C36.2356 15.644 36.6667 17.8112 36.6667 19.9999C36.6667 24.4202 34.9108 28.6594 31.7852 31.785C28.6595 34.9106 24.4203 36.6666 20 36.6666C17.8113 36.6666 15.6441 36.2355 13.622 35.3979C11.5999 34.5603 9.76257 33.3327 8.21493 31.785C5.08932 28.6594 3.33337 24.4202 3.33337 19.9999C3.33337 15.5796 5.08932 11.3404 8.21493 8.21481C11.3405 5.0892 15.5798 3.33325 20 3.33325ZM20 6.66659C16.4638 6.66659 13.0724 8.07134 10.572 10.5718C8.07147 13.0723 6.66671 16.4637 6.66671 19.9999C6.66671 23.5361 8.07147 26.9275 10.572 29.428C13.0724 31.9285 16.4638 33.3333 20 33.3333C23.5363 33.3333 26.9276 31.9285 29.4281 29.428C31.9286 26.9275 33.3334 23.5361 33.3334 19.9999C33.3334 16.4637 31.9286 13.0723 29.4281 10.5718C26.9276 8.07134 23.5363 6.66659 20 6.66659Z" fill="#A6D8D4"/>
</svg>
