<svg width="30" height="28" viewBox="0 0 30 28" fill="none" xmlns="http://www.w3.org/2000/svg">
<g filter="url(#filter0_d_41_394)">
<path d="M15 22.5H26.25M20.625 1.87504C21.1223 1.37776 21.7967 1.09839 22.5 1.09839C22.8482 1.09839 23.193 1.16698 23.5147 1.30023C23.8365 1.43349 24.1288 1.62881 24.375 1.87504C24.6212 2.12127 24.8165 2.41358 24.9498 2.7353C25.0831 3.05701 25.1517 3.40182 25.1517 3.75004C25.1517 4.09826 25.0831 4.44307 24.9498 4.76478C24.8165 5.08649 24.6212 5.37881 24.375 5.62504L8.75 21.25L3.75 22.5L5 17.5L20.625 1.87504Z" stroke="#A6D8D4" stroke-width="2" stroke-linecap="round" stroke-linejoin="round" shape-rendering="crispEdges"/>
</g>
<defs>
<filter id="filter0_d_41_394" x="-1.25" y="0.0983887" width="32.5" height="31.4016" filterUnits="userSpaceOnUse" color-interpolation-filters="sRGB">
<feFlood flood-opacity="0" result="BackgroundImageFix"/>
<feColorMatrix in="SourceAlpha" type="matrix" values="0 0 0 0 0 0 0 0 0 0 0 0 0 0 0 0 0 0 127 0" result="hardAlpha"/>
<feOffset dy="4"/>
<feGaussianBlur stdDeviation="2"/>
<feComposite in2="hardAlpha" operator="out"/>
<feColorMatrix type="matrix" values="0 0 0 0 0 0 0 0 0 0 0 0 0 0 0 0 0 0 0.25 0"/>
<feBlend mode="normal" in2="BackgroundImageFix" result="effect1_dropShadow_41_394"/>
<feBlend mode="normal" in="SourceGraphic" in2="effect1_dropShadow_41_394" result="shape"/>
</filter>
</defs>
</svg>
